<svg width="30" height="30" viewBox="0 0 30 30" fill="none" xmlns="http://www.w3.org/2000/svg">
<path d="M29.5788 27.4709L24.0171 21.95C26.1759 19.2561 27.2214 15.8369 26.9386 12.3953C26.6557 8.95378 25.066 5.75147 22.4963 3.44689C19.9266 1.1423 16.5722 -0.0893989 13.1229 0.00505728C9.67366 0.0995135 6.39163 1.51294 3.95171 3.95472C1.51179 6.39649 0.0994379 9.68101 0.00505344 13.1329C-0.0893311 16.5848 1.14143 19.9417 3.44427 22.5133C5.74711 25.085 8.94698 26.6759 12.3859 26.959C15.8249 27.2421 19.2415 26.1958 21.9333 24.0353L27.45 29.5562C27.5894 29.6968 27.7552 29.8085 27.9379 29.8846C28.1206 29.9608 28.3165 30 28.5144 30C28.7123 30 28.9082 29.9608 29.0909 29.8846C29.2736 29.8085 29.4394 29.6968 29.5788 29.5562C29.849 29.2765 30 28.9026 30 28.5136C30 28.1245 29.849 27.7506 29.5788 27.4709ZM3.02955 13.5336C3.02955 11.4565 3.645 9.42614 4.79807 7.69913C5.95114 5.97213 7.59004 4.6261 9.50752 3.83125C11.425 3.0364 13.535 2.82843 15.5705 3.23364C17.6061 3.63885 19.4759 4.63904 20.9435 6.10774C22.4111 7.57643 23.4105 9.44766 23.8154 11.4848C24.2203 13.5219 24.0125 15.6335 23.2183 17.5524C22.424 19.4714 21.079 21.1115 19.3533 22.2655C17.6276 23.4194 15.5988 24.0353 13.5233 24.0353C10.7402 24.0353 8.07106 22.9289 6.1031 20.9594C4.13514 18.99 3.02955 16.3188 3.02955 13.5336Z" fill="white"/>
</svg>
