<svg width="50" height="50" viewBox="0 0 50 50" fill="none" xmlns="http://www.w3.org/2000/svg">
<path d="M2.5 50H47.5C48.163 50 48.7989 49.7366 49.2678 49.2678C49.7366 48.7989 50 48.163 50 47.5V10C50 9.33696 49.7366 8.70107 49.2678 8.23223C48.7989 7.76339 48.163 7.5 47.5 7.5H37.5V2.5C37.5 1.83696 37.2366 1.20107 36.7678 0.732233C36.2989 0.263392 35.663 0 35 0C34.337 0 33.7011 0.263392 33.2322 0.732233C32.7634 1.20107 32.5 1.83696 32.5 2.5V7.5H17.5V2.5C17.5 1.83696 17.2366 1.20107 16.7678 0.732233C16.2989 0.263392 15.663 0 15 0C14.337 0 13.7011 0.263392 13.2322 0.732233C12.7634 1.20107 12.5 1.83696 12.5 2.5V7.5H2.5C1.83696 7.5 1.20107 7.76339 0.732233 8.23223C0.263392 8.70107 0 9.33696 0 10V47.5C0 48.163 0.263392 48.7989 0.732233 49.2678C1.20107 49.7366 1.83696 50 2.5 50ZM5 12.5H45V20H5V12.5ZM5 25H45V45H5V25Z" fill="black"/>
</svg>
