<svg width="60" height="60" viewBox="0 0 60 60" fill="none" xmlns="http://www.w3.org/2000/svg">
<path d="M40.7999 22.368H19.1999C16.4967 22.217 13.8435 23.1418 11.82 24.9406C9.79641 26.7394 8.56689 29.2658 8.3999 31.968V43.968C8.56689 46.6704 9.79641 49.1966 11.82 50.9954C13.8435 52.7942 16.4967 53.719 19.1999 53.568H40.7999C43.503 53.719 46.1562 52.7942 48.1799 50.9954C50.2033 49.1966 51.4329 46.6704 51.5999 43.968V31.968C51.4329 29.2658 50.2033 26.7394 48.1799 24.9406C46.1562 23.1418 43.503 22.217 40.7999 22.368Z" stroke="black" stroke-width="2" stroke-linecap="round" stroke-linejoin="round"/>
<path d="M42 22.368V17.568C42 14.3854 40.7357 11.3332 38.4852 9.08272C36.235 6.83229 33.1826 5.56799 30 5.56799C26.8174 5.56799 23.7651 6.83229 21.5147 9.08272C19.2643 11.3332 18 14.3854 18 17.568V22.368" stroke="black" stroke-width="2" stroke-linecap="round" stroke-linejoin="round"/>
</svg>
