<svg width="60" height="60" viewBox="0 0 60 60" fill="none" xmlns="http://www.w3.org/2000/svg">
<path d="M29.985 3.75C36.3525 3.75 43.1062 9.1125 43.1062 13.1156V22.485C43.1062 26.0925 41.6063 32.9925 37.5844 36.1594C36.5588 36.9656 36.0262 38.25 36.18 39.5475C36.3337 40.845 37.1513 41.9681 38.3381 42.5137L54.6562 50.2519C54.7837 50.31 56.22 50.5519 56.22 52.5581L56.2219 56.2181L3.75187 56.2219V52.4175C3.75187 50.9269 4.86937 50.4581 5.3175 50.2538L21.7838 42.4819C22.965 41.94 23.7806 40.8225 23.9381 39.5325C24.0956 38.2425 23.5763 36.9638 22.5638 36.1519C18.6675 33.0244 16.8525 26.1488 16.8525 22.4888V13.1194C16.8544 9.2025 23.6737 3.75375 29.985 3.75375V3.75ZM29.985 0C21.705 0 13.1025 6.91125 13.1025 13.1175V22.4869C13.1025 26.5819 14.9719 34.8638 20.2144 39.075L3.74625 46.8469C3.74625 46.8469 0 48.5156 0 50.595V56.2219C0 58.2938 1.67812 59.97 3.74625 59.97H56.22C58.2919 59.97 59.9681 58.2919 59.9681 56.2219V50.595C59.9681 48.3919 56.22 46.8469 56.22 46.8469L39.9019 39.1087C45.0956 35.0212 46.8544 26.9888 46.8544 22.4869V13.1175C46.8544 6.91125 38.2631 0.001875 29.9831 0.001875L29.985 0Z" fill="black"/>
</svg>
